<svg xmlns="http://www.w3.org/2000/svg" xmlns:xlink="http://www.w3.org/1999/xlink" width="684.158" height="437.084" viewBox="0 0 684.158 437.084">
  <defs>
    <linearGradient id="linear-gradient" x1="0.302" y1="-0.395" x2="0.771" y2="1.667" gradientUnits="objectBoundingBox">
      <stop offset="0" stop-color="#ffb000"/>
      <stop offset="1" stop-color="#ff7900"/>
    </linearGradient>
    <linearGradient id="linear-gradient-2" x1="0.455" y1="0.975" x2="0.547" y2="-0.106" gradientUnits="objectBoundingBox">
      <stop offset="0" stop-color="#ffc5ae"/>
      <stop offset="1" stop-color="#ea8b6a"/>
    </linearGradient>
    <linearGradient id="linear-gradient-3" x1="1.578" y1="0.415" x2="-0.116" y2="0.543" xlink:href="#linear-gradient-2"/>
    <linearGradient id="linear-gradient-4" x1="0.371" y1="1.049" x2="0.703" y2="-0.592" xlink:href="#linear-gradient-2"/>
    <linearGradient id="linear-gradient-5" x1="0.481" y1="0.893" x2="0.532" y2="-0.459" xlink:href="#linear-gradient-2"/>
    <linearGradient id="linear-gradient-6" x1="0.531" y1="1.066" x2="0.464" y2="-0.346" xlink:href="#linear-gradient-2"/>
    <linearGradient id="linear-gradient-7" x1="0.044" y1="1.044" x2="0.876" y2="-0.385" xlink:href="#linear-gradient-2"/>
    <linearGradient id="linear-gradient-8" x1="0.373" y1="0.108" x2="0.795" y2="1.414" xlink:href="#linear-gradient-2"/>
    <linearGradient id="linear-gradient-9" x1="0.228" y1="0.037" x2="1" y2="0.869" xlink:href="#linear-gradient-2"/>
    <linearGradient id="linear-gradient-10" x1="-0.532" y1="0.2" x2="1.139" y2="0.617" xlink:href="#linear-gradient-2"/>
    <linearGradient id="linear-gradient-11" x1="0.074" y1="-0.038" x2="0.862" y2="0.848" xlink:href="#linear-gradient-2"/>
    <linearGradient id="linear-gradient-12" x1="1.391" y1="-0.23" x2="-0.315" y2="1.025" xlink:href="#linear-gradient-2"/>
    <linearGradient id="linear-gradient-13" x1="0.576" y1="1.109" x2="0.387" y2="-0.909" xlink:href="#linear-gradient-2"/>
    <linearGradient id="linear-gradient-14" x1="0.422" y1="0.681" x2="0.616" y2="0.013" xlink:href="#linear-gradient-2"/>
    <linearGradient id="linear-gradient-15" x1="0.724" y1="0.32" x2="-0.328" y2="0.933" gradientUnits="objectBoundingBox">
      <stop offset="0" stop-color="#fff" stop-opacity="0"/>
      <stop offset="1" stop-color="#98c4f9"/>
    </linearGradient>
    <linearGradient id="linear-gradient-16" x1="0.116" y1="0.289" x2="1.743" y2="1.557" xlink:href="#linear-gradient-15"/>
    <linearGradient id="linear-gradient-17" x1="0.747" y1="0.455" x2="-0.368" y2="0.777" xlink:href="#linear-gradient-15"/>
  </defs>
  <g id="_404-img" data-name="404-img" transform="translate(-33.782)">
    <g id="Group_13" data-name="Group 13">
      <g id="Group_1" data-name="Group 1">
        <path id="Path_1" data-name="Path 1" d="M552.46,304.536l-9.2-26.973L527.91,282.8l-31.359-92.021-34.963,11.911.1.313-11.277,48.677-16.045,69.251,9.36,20.665,33.014-11.25,12.018-4.1,13.378-4.561,10.924,32.058,34.963-11.912L537.1,309.772ZM488.887,296.1l-7.931,2.7-15.189,5.177L476.134,252.5l.974-4.271,15.838,46.479Z" fill="#98c4f9"/>
        <path id="Path_2" data-name="Path 2" d="M537.1,309.772l10.923,32.058-22.27-9.526L490.165,204.06l-13.057,44.172-6.046,25.019-20.647-21.576L461.693,203l-.106-.313,34.963-11.912,31.359,92.021,15.355-5.232,9.195,26.973Z" opacity="0.25"/>
        <path id="Path_3" data-name="Path 3" d="M488.763,326.245l-12.018,4.1,1.766-24.766V301.06l2.445-2.262,1.573-1.452,6.358-1.251S488.492,314.287,488.763,326.245Z" opacity="0.25"/>
        <path id="Path_4" data-name="Path 4" d="M488.889,296.094a9.99,9.99,0,0,0-8.249-3.336c-5.243.437-8.169,2.4-8.345,7.866s1.127,32.992-.071,43.917,6.251,12.017,6.678,3.932-2.737-33.429-.39-37.58.919,4.588,3.381,7.429,5.084-2.185,2.462-8.958S488.889,296.094,488.889,296.094Z" fill="url(#linear-gradient)"/>
      </g>
      <g id="Group_4" data-name="Group 4">
        <g id="Group_2" data-name="Group 2">
          <path id="Path_5" data-name="Path 5" d="M168.711,255.309a6.2,6.2,0,0,1-1.849-.169c-.336-.141-1.358-.568-10.28-16.494l1.6-.9c3.333,5.948,8.385,14.6,9.455,15.711a95.978,95.978,0,0,0,11.036-.691l.184,1.83C175.885,254.9,171.316,255.309,168.711,255.309Z" fill="#ff6643"/>
        </g>
        <path id="Path_6" data-name="Path 6" d="M201.053,263.031v.533s-.487,10.11-8.054,9.673c-.019,0-.037-.005-.056-.005-4.68-.3-10.472-2.487-14.357-4.11-2.441-1.02-4.133-1.82-4.322-1.788-.492.078,5.733,25.971,5.65,27.446a2.46,2.46,0,0,1-.124.626c-.441,1.4-1.981,3.084-2.9,3.222-.1.014-.295-.165-.575-.515-2.814-3.5-13.953-23.819-14.256-30.453-.327-7.291,3.36-11.682,8.358-12.518,3.687-.617,14.468.869,19.87,1.691,1.917.295,3.153.5,3.153.5Z" fill="#092533"/>
        <g id="Group_3" data-name="Group 3">
          <path id="Path_7" data-name="Path 7" d="M179.914,294.78a2.46,2.46,0,0,1-.124.626c-.441,1.4-1.981,3.084-2.9,3.222-.1.014-.295-.165-.575-.515,3.963-5.6-6.4-32.834-4.142-32.912,1.112-.037,3.572,1.852,6.418,3.921-2.441-1.02-4.133-1.82-4.322-1.788C173.772,267.412,180,293.3,179.914,294.78Z" opacity="0.25"/>
          <path id="Path_8" data-name="Path 8" d="M201.053,263.031v.533s-.487,10.11-8.054,9.673c1.489-1.191,1.765-3.287,1.655-5.825-.129-2.938-2.846-7.967-4.372-10.579,1.917.295,3.153.5,3.153.5Z" opacity="0.25"/>
        </g>
        <path id="Path_9" data-name="Path 9" d="M184.949,229.838a2.118,2.118,0,0,0-.419.979s-.009-.014-.027-.046c-.088-.156-.4-.7-.814-1.338-.69-1.067-1.641-2.391-2.216-2.552-.924-.252-3.384,2.855-6.708,3.1a5.462,5.462,0,0,1-.666.014c-3.66-.166-7.54-5.357-4.423-11.471a4.04,4.04,0,0,0,3.329,2.294,1.929,1.929,0,0,1-1.416-1.968c3.985.708,6.059-2.294,9.5-1.2s3.223,3.168,3.223,3.168,2.621-1.039,3.439,2.239C188.41,225.682,185.96,228.265,184.949,229.838Z" fill="#092533"/>
        <path id="Path_10" data-name="Path 10" d="M184.5,230.771a7,7,0,0,1-1.283,2.459,3.611,3.611,0,0,1-2.786,1.518c-2.326-.056-4.639-3.177-5.669-4.763,3.324-.249,5.784-3.356,6.708-3.1.575.161,1.526,1.485,2.216,2.552C184.1,230.067,184.415,230.615,184.5,230.771Z" fill="url(#linear-gradient-2)"/>
        <path id="Path_11" data-name="Path 11" d="M187.863,231.088s-1.747,3.991-2.4,3.117a4.315,4.315,0,0,0-2.239-.975,7,7,0,0,0,1.283-2.459c.018.032.027.046.027.046a2.118,2.118,0,0,1,.419-.979A7.764,7.764,0,0,0,187.863,231.088Z" fill="url(#linear-gradient-3)"/>
        <path id="Path_12" data-name="Path 12" d="M200.152,264.791c-2.786-.409-10.321-8.6-10.321-12.127a11.111,11.111,0,0,0-.147-1.651c-.579-3.669-2.7-9.047-3.581-12.85-1.026-4.422.45-6.077.45-6.077,3.43-5.9,11.192,5.792,15.619,15.167l.005,0a24.317,24.317,0,0,1,2.565,8.055C205.059,261.95,202.938,265.2,200.152,264.791Z" fill="#4d5aff"/>
        <path id="Path_13" data-name="Path 13" d="M200.152,264.791c-2.786-.409-10.321-8.6-10.321-12.127a11.111,11.111,0,0,0-.147-1.651l-.019-1.572,2.731-14.307s3.77,4.482,4.372,12.509,9.436,9.774,5.409-.386a24.317,24.317,0,0,1,2.565,8.055C205.059,261.95,202.938,265.2,200.152,264.791Z" opacity="0.25"/>
        <path id="Path_14" data-name="Path 14" d="M194.309,247.1a.989.989,0,0,1-.373.161,22.037,22.037,0,0,1-6.624,0,2.578,2.578,0,0,1-.543-.157c-1.034-.492,0-1.7-.326-3.825s-1.145-8.358,2.023-10.27c3.314-2,5.733,5.572,5.843,9.342S195.021,246.494,194.309,247.1Z" fill="#4d5aff"/>
        <path id="Path_15" data-name="Path 15" d="M193.936,247.257s-.151,9.209-1.907,13.553v.009c-.548,1.352-1.251,2.23-2.157,2.212-3.811-.083-12.371-9.135-13.153-9.466s-4.671.248-4.547-.327,1.642-1.843,3.278-2.455,1.352-.248,11.88,4.589c-.143-.929-.083-4.947-.037-7.223.005-.345.014-.648.019-.9A22.037,22.037,0,0,0,193.936,247.257Z" fill="url(#linear-gradient-4)"/>
        <path id="Path_16" data-name="Path 16" d="M183.054,301.005c.267,1.642-10.757,12.864-10.183,9.917s4.014-12.294,4.014-12.294c.924-.138,2.464-1.82,2.9-3.222C180.691,296.969,182.829,299.644,183.054,301.005Z" fill="#4d5aff"/>
        <path id="Path_17" data-name="Path 17" d="M193,266.54s-17.7-3.323-21.193-1.716,6.4,29.573,6.4,29.573" fill="none" stroke="#fff" stroke-miterlimit="10" stroke-width="0.46" opacity="0.25"/>
        <path id="Path_18" data-name="Path 18" d="M192.029,260.81c.335-1.848.588-7.222-.341-9.346-.625-1.435-2.951-2.667-4.4-3.315.005-.345.014-.648.019-.9a22.037,22.037,0,0,0,6.624,0S193.785,256.466,192.029,260.81Z" opacity="0.25"/>
      </g>
      <g id="Group_5" data-name="Group 5">
        <path id="Path_19" data-name="Path 19" d="M478.037,198.529a50.962,50.962,0,0,1-1.885,5.531c-1.324,3.407-3.324,8.05-6.271,14.523-.073,3.287-1.121,24.256-1.406,29.083-.037.589-.06.938-.069.984-.042.212-.8.616-1.628.823-.781.2-1.618.23-1.977-.248-.74-.984-5.737-20.813-5.981-25.484s-.492-3.6,5.241-22.2c-1.393.652-10.422.409-10.422.409s1.655,22.775,1.664,22.941a.538.538,0,0,1-.046.156,4.149,4.149,0,0,1-.795,1.356c-.161.161-.327.253-.478.207a2.479,2.479,0,0,1-.607-.542,60.9,60.9,0,0,1-9.062-13.8c-3.029-6.8-3.77-11.553-.9-16.3s17.4-5.116,17.4-5.116c.919.257,3.034.51,5.126,1.007.616.142,1.232.312,1.811.505,3.182,1.058,9.246,2.4,10.551,1.646A8,8,0,0,1,478.037,198.529Z" fill="#6c5be8"/>
        <path id="Path_20" data-name="Path 20" d="M490.078,182.7c-.575.326-7.25.078-11.76-1.641.023.8.124,2.045.239,3.466.179,2.239.386,4.9.335,6.841-.027,1.384-.188,2.4-.574,2.639a.028.028,0,0,1-.019.009c-.694.4-2.726.207-4.96-.216-1.444-.276-2.97-.648-4.271-1.021-.474-.138-.92-.275-1.32-.409-2.556-.855-5.747-1.181-6.937-1.512-.3-.083-.469-.161-.478-.253-.037-.451,1.108-1.471,1.645-2.538.065-.133.152-.331.249-.584a45.341,45.341,0,0,0,1.452-4.579c.2-.795.272-1.319.1-1.227-.533.285-3.687,6.183-4.055,6.183a6.956,6.956,0,0,1-1.517-.873c-1.269-.86-2.864-2.124-2.9-2.727a.229.229,0,0,1,.074-.206c.74-.7,6.39-10.2,8.44-12.23a9.1,9.1,0,0,1,4.837-2.344,13,13,0,0,1,3.641.423c4.064,1.016,7.793,3.581,9.917,4.85,2.744,1.637,4.629,1.186,5.323,1.6S490.648,182.365,490.078,182.7Z" fill="#ff6643"/>
        <path id="Path_21" data-name="Path 21" d="M478.892,191.362c-3.779.046-12.178-.29-16.665-3.885a45.341,45.341,0,0,0,1.452-4.579s8.869,2.69,14.878,1.623C478.736,186.76,478.943,189.422,478.892,191.362Z" fill="#ff9280"/>
        <path id="Path_22" data-name="Path 22" d="M472.3,169.9c-.147,1.572-.7,3.264-2.414,3.131a3.229,3.229,0,0,1-3.043-3.081,8.426,8.426,0,0,1,1.816-.473A13,13,0,0,1,472.3,169.9Z" opacity="0.25"/>
        <path id="Path_23" data-name="Path 23" d="M471.274,166.472a6.736,6.736,0,0,0-1.232-2.543c-.666,1.085-3.236,1.642-5.218,1.784a7.943,7.943,0,0,1-2.156-.06,6.082,6.082,0,0,1,5.37-7.949c2.413-.165,4.588,1.633,3.931,4.377C474.139,164.219,471.274,166.472,471.274,166.472Z" fill="#350909"/>
        <path id="Path_24" data-name="Path 24" d="M471.274,166.472a9.211,9.211,0,0,1-.648,1.577h0a2.226,2.226,0,0,1-3.03,1.209,1.681,1.681,0,0,1-.161-.074,4.68,4.68,0,0,1-2.368-2.7,6.228,6.228,0,0,1-.239-.772c1.982-.142,4.552-.7,5.218-1.784l.111.124A7.072,7.072,0,0,1,471.274,166.472Z" fill="url(#linear-gradient-5)"/>
        <path id="Path_25" data-name="Path 25" d="M471.067,170.651c-.243,1.517-2.744,1.434-3.015.45-.143-.51-.3-1-.428-1.361-.11-.335-.193-.551-.193-.551v0a1.681,1.681,0,0,0,.161.074,2.226,2.226,0,0,0,3.03-1.209h0c-.17.34.285.767.437,1.572A2.94,2.94,0,0,1,471.067,170.651Z" fill="url(#linear-gradient-6)"/>
        <path id="Path_26" data-name="Path 26" d="M458.08,230.706c-.244,1.885-9.995,9.26-9.829,7.949s5.126-12.587,5.126-12.587a2.479,2.479,0,0,0,.607.542c.491.143,1.117-1.108,1.273-1.563C456.567,226.693,458.3,229.024,458.08,230.706Z" fill="#12006d"/>
        <path id="Path_27" data-name="Path 27" d="M464.8,264.575c-2.294-4.919,0-15.35,0-15.35.736.984,3.522-.166,3.605-.575.009-.046.032-.395.069-.984,0,0,.367,5,.8,9.232S467.1,269.49,464.8,264.575Z" fill="#12006d"/>
        <path id="Path_28" data-name="Path 28" d="M464.061,201.541c-1.393.652-10.422.409-10.422.409s1.655,22.775,1.664,22.941a.538.538,0,0,1-.046.156,4.149,4.149,0,0,1-.795,1.356c-1.665-7.792-4.984-22.734-2.336-25.3,3.389-3.278,12.565-4.152,12.7-3.434A18.885,18.885,0,0,1,464.061,201.541Z" opacity="0.25"/>
        <path id="Path_29" data-name="Path 29" d="M457.565,190.778a1.089,1.089,0,0,0-.161.658c.2.763-.85,10.321-.469,11.3a18.452,18.452,0,0,1,.382,6.065c-.221,1.967-4.317,3.167-4.317,1.475s.492-5.682.657-7.213-1.365-12.588-.956-14.119a17.611,17.611,0,0,1,1.972-3.742c.363-.565.63-.952.63-.952.06.961,4.083,3.6,4.418,3.6A18.217,18.217,0,0,0,457.565,190.778Z" fill="url(#linear-gradient-7)"/>
        <path id="Path_30" data-name="Path 30" d="M478.037,198.529a8.516,8.516,0,0,1-5.255-2.344,25.866,25.866,0,0,0-6.845-4.326c.616.142,1.232.312,1.811.505,3.182,1.058,9.246,2.4,10.551,1.646A8,8,0,0,1,478.037,198.529Z" opacity="0.25"/>
        <path id="Path_31" data-name="Path 31" d="M476.152,204.06c-1.324,3.407-3.324,8.05-6.271,14.523-.073,3.287-1.121,24.256-1.406,29.083-.037.589-.06.938-.069.984-.042.212-.8.616-1.628.823.189-7.071-.06-22.463,1.136-27.042C469.343,216.951,475.752,204.814,476.152,204.06Z" opacity="0.25"/>
        <path id="Path_32" data-name="Path 32" d="M469.068,192.773c-.474-.138-.92-.275-1.32-.409-2.556-.855-5.747-1.181-6.937-1.512-.3-.083-.469-.161-.478-.253-.037-.451,1.108-1.471,1.645-2.538s2.331-6.68,1.8-6.39-3.687,6.183-4.055,6.183a6.956,6.956,0,0,1-1.517-.873c.078-.134.165-.267.262-.409,1.963-2.9,5.186-6.5,5.733-9.614.437-2.294,1.094-.983.984,1.968C465.082,181.574,464.939,189.684,469.068,192.773Z" opacity="0.25"/>
        <path id="Path_33" data-name="Path 33" d="M478.318,194a.028.028,0,0,1-.019.009c-.694.4-2.726.207-4.96-.216,4-4,1.816-14.85,2.441-14.293a16.077,16.077,0,0,0,2.538,1.554C478.4,184.006,479.591,193.224,478.318,194Z" opacity="0.25"/>
        <path id="Path_34" data-name="Path 34" d="M459.721,187.854a18.217,18.217,0,0,0-2.156,2.924c-.014-.244-.032-.469-.055-.671-.124-1.172-1.95-3.719-2.837-4.9.363-.565.63-.952.63-.952C455.363,185.215,459.386,187.854,459.721,187.854Z" opacity="0.25"/>
        <path id="Path_35" data-name="Path 35" d="M470.153,164.053c-.984,2.175-3.876,2.428-5.09,2.432a6.228,6.228,0,0,1-.239-.772c1.982-.142,4.552-.7,5.218-1.784Z" opacity="0.25"/>
        <path id="Path_36" data-name="Path 36" d="M471.063,169.621a1.752,1.752,0,0,1-.69.313,4.224,4.224,0,0,1-2.749-.194c-.11-.335-.193-.551-.193-.551v0a1.681,1.681,0,0,0,.161.074,2.226,2.226,0,0,0,3.03-1.209h0C470.456,168.389,470.911,168.816,471.063,169.621Z" opacity="0.25"/>
        <line id="Line_1" data-name="Line 1" y2="204.06" transform="translate(484.136)" fill="none" stroke="#092533" stroke-miterlimit="10" stroke-width="0.919"/>
        <path id="Path_37" data-name="Path 37" d="M492.74,179.772c-.01.055-.023.11-.033.161-.542,2.469-2.519,2.731-2.891,2.57s-1.357-1.292-2.216-5.278c-.019-.078-.032-.156-.051-.239,0,0-1.857-4.763-2.731-7.052-2.156-1.279-2.565-.759-2.868-2.235a4.308,4.308,0,0,1,1.2-3.659c.547-.272,3,2.023,3.333,2.868S493.232,177.151,492.74,179.772Z" fill="url(#linear-gradient-8)"/>
        <path id="Path_38" data-name="Path 38" d="M492.707,179.933c-.542,2.469-2.519,2.731-2.891,2.57s-1.357-1.292-2.216-5.278a8.408,8.408,0,0,0,2.312,3.135A2,2,0,0,0,492.707,179.933Z" opacity="0.25"/>
      </g>
      <g id="Group_6" data-name="Group 6">
        <path id="Path_39" data-name="Path 39" d="M420.321,309l-5.268-26.908q-5.849-29.855-22.55-43.561t-41.28-8.891q-24.571,4.813-34.844,23.69t-4.409,48.838l5.287,27.01q5.828,29.749,22.532,43.455a43.571,43.571,0,0,0,15.53,8.266q11.592,3.4,25.846.607a61.773,61.773,0,0,0,13.48-4.175,43.939,43.939,0,0,0,21.267-19.5Q426.189,338.952,420.321,309Zm-32.889,36.117q-2.7,8.275-11.434,9.986-9.04,1.771-14.7-5.08-3.861-4.67-6.6-13.861v-.01a.248.248,0,0,1-.01-.032q-1.269-4.262-2.289-9.5L345,288.845q-2.6-14.881-.019-22.978t11.416-9.824a14.176,14.176,0,0,1,11.622,2.266h0a17.034,17.034,0,0,1,3.113,3.016q5.7,7.055,8.822,23l7.158,36.554Q390.135,336.84,387.432,345.117Z" fill="#f06"/>
        <path id="Path_40" data-name="Path 40" d="M390.075,350.165c1.517,2.336,3.535,18.215,4.57,27.166a61.773,61.773,0,0,1-13.48,4.175q-14.253,2.785-25.846-.607a22.944,22.944,0,0,0,.855-2.221c4.823-14.735-1.205-41.321-1.48-42.516q2.738,9.192,6.6,13.861,5.668,6.854,14.7,5.08,8.73-1.71,11.434-9.986t-.318-24.242l-7.158-36.554q-3.117-15.936-8.822-23a17.034,17.034,0,0,0-3.113-3.016c11.627,2.281,21.07,38.278,25.006,55.643S397.288,339.352,390.075,350.165Z" opacity="0.25"/>
        <path id="Path_41" data-name="Path 41" d="M357.259,343.225s.754,1.971,4.714,3.064,7.674-5.034,10.3-3.064,6.819,10.14,10.511,8.9,4.784,18.42,3.036,20.605-3.005-15.474-7.62-14.947-1.12,13.854-3.742,16.258-1.529-5.9-4.37-7.429,3.059,66.858-1.311,67.951-7.21-3.059-5.462-17.7-.437-65.11-3.059-67.732S357.794,346.015,357.259,343.225Z" fill="#6c5be8"/>
      </g>
      <g id="Group_8" data-name="Group 8">
        <line id="Line_2" data-name="Line 2" y2="238.573" transform="translate(356.174)" fill="none" stroke="#092533" stroke-miterlimit="10" stroke-width="0.919"/>
        <g id="Group_7" data-name="Group 7">
          <path id="Path_42" data-name="Path 42" d="M412.895,146.316s-3.482-9.546-3.2-10.283,4.112-2.13,4.391-1.721,2.7,7.825,2.287,8.357S412.895,146.316,412.895,146.316Z" fill="#12006d"/>
          <path id="Path_43" data-name="Path 43" d="M354.968,133.8a6.251,6.251,0,0,1,3.07,3.176c.944,2.294.576-5.981.576-5.981l-1.024-.942Z" fill="url(#linear-gradient-9)"/>
          <path id="Path_44" data-name="Path 44" d="M353.862,133.8a30.948,30.948,0,0,0,3.113,2.111c.451.123,1.321-5.08.927-5.9s-1.838-1.639-2.775-1.106S353.424,133.477,353.862,133.8Z" fill="url(#linear-gradient-10)"/>
          <path id="Path_45" data-name="Path 45" d="M360.949,134.394s-2.121-4.916-3.047-5.776-2.648.246-2.77.7,2.058.779,2.77,1.516-1.214,6.186.63,8.111S360.949,134.394,360.949,134.394Z" fill="url(#linear-gradient-11)"/>
          <path id="Path_46" data-name="Path 46" d="M410.273,147.422a11.882,11.882,0,0,0,2.294-1.557c.41-.533-.328-2.54.86-4.384s3.728-1.31,4.343.9-.983,5-1.721,5.858-5.776,4.465-5.776,4.465" fill="url(#linear-gradient-12)"/>
          <path id="Path_47" data-name="Path 47" d="M411.623,151.7a4.408,4.408,0,0,1-1.044,1.65c-2.39,2.8-8.978,8.266-20.853,14.519a29.576,29.576,0,0,0-.557,2.9,47.66,47.66,0,0,0-.285,9.085c.037.726.083,1.434.134,2.115.216,2.979.51,5.438.432,6.863a1.876,1.876,0,0,1-.359,1.237,6.808,6.808,0,0,1-.841.634c-5.931,3.807-16.725-1.88-18.472-3.59a.817.817,0,0,1-.239-.322c-.3-1.149.873-2.377,1.53-4.344a13.323,13.323,0,0,0,.331-2.111c.313-3.029.584-8.45.681-12.527a40.167,40.167,0,0,0-.078-5.2.044.044,0,0,1-.005-.019c-.326-1.337-10.27-16.362-13.254-21.686a6.393,6.393,0,0,1-.841-1.8c.11-1.2,2.4-5.461,2.9-5.406a4.614,4.614,0,0,1,.846,1.025c2.3,3.2,8.5,12.873,9.641,14.1,1.066,1.154,6.5,6.868,8.822,9.319.657.685,1.067,1.117,1.067,1.117a27.757,27.757,0,0,0,3.788-.336C396.139,157.2,407.122,149.378,410,147.2c.473-.359.726-.561.726-.561S411.871,150.165,411.623,151.7Z" fill="#ff7900"/>
          <path id="Path_48" data-name="Path 48" d="M383.733,164.2c-3.811.616-3.823-4.343-3.625-6.058.657.685,1.067,1.117,1.067,1.117a27.757,27.757,0,0,0,3.788-.336C385.436,160.881,385.057,163.993,383.733,164.2Z" fill="#c64200"/>
          <path id="Path_49" data-name="Path 49" d="M387.593,153.571a3.715,3.715,0,0,1-2.938.281,10.88,10.88,0,0,1-3.347-1.637,6.08,6.08,0,0,0-1.1,3.48c-2.7-2.335-3.36-4.671-1.066-5.53-.943-4.1,1.066-4.956,4.423-5.159s4.137,3.237,6.146,3.154C389.827,149.995,389.307,152.555,387.593,153.571Z" fill="#12006d"/>
          <path id="Path_50" data-name="Path 50" d="M387.593,153.571c-.037.331-.092.713-.171,1.122-.45,2.4-1.627,5.738-3.4,5.554a1.164,1.164,0,0,1-.289-.055A5.5,5.5,0,0,1,380.673,157a8.474,8.474,0,0,1-.469-1.306,7.318,7.318,0,0,1,.3-1.825,5.076,5.076,0,0,1,.805-1.655,10.88,10.88,0,0,0,3.347,1.637A3.715,3.715,0,0,0,387.593,153.571Z" fill="url(#linear-gradient-13)"/>
          <path id="Path_51" data-name="Path 51" d="M384.02,161.658c-.018.869-.138,1.55-.717,1.591-1.172.083-2.731-1.448-2.648-3.113.028-.565.037-1.167.037-1.719s-.009-1.062-.019-1.416a5.5,5.5,0,0,0,3.058,3.191,1.164,1.164,0,0,0,.289.055C384.016,160.73,384.034,161.217,384.02,161.658Z" fill="url(#linear-gradient-14)"/>
          <path id="Path_52" data-name="Path 52" d="M411.623,151.7a4.408,4.408,0,0,1-1.044,1.65A43.624,43.624,0,0,0,410,147.2c.473-.359.726-.561.726-.561S411.871,150.165,411.623,151.7Z" fill="#c64200"/>
          <path id="Path_53" data-name="Path 53" d="M361.645,134.722c-1.747,1.494-2.6,4.749-2.9,6.183a6.393,6.393,0,0,1-.841-1.8c.11-1.2,2.4-5.461,2.9-5.406A4.614,4.614,0,0,1,361.645,134.722Z" fill="#c64200"/>
          <path id="Path_54" data-name="Path 54" d="M389.018,181.97c-3.908.565-11.259,1.066-17.618-1.633.313-3.029.584-8.45.681-12.527,3.149,1.333,9.949,3.705,17.088,2.96A52.542,52.542,0,0,0,389.018,181.97Z" fill="#ffb000"/>
          <path id="Path_55" data-name="Path 55" d="M388.25,190.7c-6.39,4.1-18.426-2.818-18.711-3.912-.3-1.149.873-2.377,1.53-4.344a13.323,13.323,0,0,0,.331-2.111c.313-3.029.584-8.45.681-12.527a40.167,40.167,0,0,0-.078-5.2,113.547,113.547,0,0,1,3.406,13.939c1.15,6.882.9,10.16,4.262,12.372C381.639,190.213,385.229,190.893,388.25,190.7Z" opacity="0.25"/>
          <path id="Path_56" data-name="Path 56" d="M402.856,209.623c0,2.841-10.271,18.583-12.4,21.814-.244.373-.382.58-.382.58a13.758,13.758,0,0,1-2.414-.52c-.758-.262-1.406-.62-1.406-1.117a3.447,3.447,0,0,1,.05-.464c.363-2.193,2.621-10.128,5.517-20.62-1.526-1.857-12.234-8.96-12.234-8.96a.206.206,0,0,0-.009.028c-.464,1.071-15.327,35.441-17.015,38.645a1.461,1.461,0,0,1-.128.221c-.764.984-3.931,1.09-4.152-.984v-.009c-.91-8.689,6.584-34.894,10.073-46.484.625-2.078,1.122-3.687,1.421-4.639,1.747,1.71,12.541,7.4,18.472,3.59a6.808,6.808,0,0,0,.841-.634,1.876,1.876,0,0,0,.359-1.237c.11.12.225.249.34.387C393.928,193.95,402.856,206.887,402.856,209.623Z" fill="#98c4f9"/>
          <path id="Path_57" data-name="Path 57" d="M363.612,243.818c-.409,2.046-11.226,8.11-10.242,4.441.8-2.974,3.806-8.165,4.914-10.022v.009c.221,2.074,3.388,1.968,4.152.984a1.461,1.461,0,0,0,.128-.221C363.116,240.591,363.879,242.494,363.612,243.818Z" fill="#12006d"/>
          <path id="Path_58" data-name="Path 58" d="M394.01,242.016c-.822.409-11.47-3.687-11.226-5.08s3.521-7.02,3.521-7.02a3.447,3.447,0,0,0-.05.464c0,1.2,3.82,1.637,3.82,1.637s.138-.207.382-.58C390.93,235.69,394.778,241.63,394.01,242.016Z" fill="#12006d"/>
          <path id="Path_59" data-name="Path 59" d="M378.2,199.163s-11.8,23.171-16.223,39.074" fill="none" stroke="#000" stroke-miterlimit="10" stroke-width="0.46" opacity="0.25"/>
          <path id="Path_60" data-name="Path 60" d="M380.982,199.163s13.109,8.6,13.6,10-6.8,20.757-6.8,20.757" fill="none" stroke="#000" stroke-miterlimit="10" stroke-width="0.46" opacity="0.25"/>
          <path id="Path_61" data-name="Path 61" d="M389.79,189.22c-1.444,5.765-9.8,4.2-14.077,3.089a25.345,25.345,0,0,0-7.356-.556c.625-2.078,1.122-3.687,1.421-4.639,1.747,1.71,12.541,7.4,18.472,3.59a6.808,6.808,0,0,0,.841-.634,1.876,1.876,0,0,0,.359-1.237C389.56,188.953,389.675,189.082,389.79,189.22Z" opacity="0.25"/>
          <path id="Path_62" data-name="Path 62" d="M387.661,231.5c-.758-.262-1.406-.62-1.406-1.117a3.447,3.447,0,0,1,.05-.464c.363-2.193,2.621-10.128,5.517-20.62-1.526-1.857-12.234-8.96-12.234-8.96s.874-2.947,1.858-3.168,12.344,9.558,13.6,11.581C396.153,210.529,388.415,225.038,387.661,231.5Z" opacity="0.25"/>
          <path id="Path_63" data-name="Path 63" d="M387.593,153.571c-.037.331-.092.713-.171,1.122-2.864,1.457-5.673-1.825-6.008-1.784-.193.023-.589.52-.911.961a5.076,5.076,0,0,1,.805-1.655,10.88,10.88,0,0,0,3.347,1.637A3.715,3.715,0,0,0,387.593,153.571Z" opacity="0.25"/>
          <path id="Path_64" data-name="Path 64" d="M384.02,161.658c-1.889-.46-2.933-2.354-3.328-3.241,0-.556-.009-1.062-.019-1.416a5.5,5.5,0,0,0,3.058,3.191,1.164,1.164,0,0,0,.289.055C384.016,160.73,384.034,161.217,384.02,161.658Z" opacity="0.25"/>
          <path id="Path_65" data-name="Path 65" d="M389.169,170.77a47.66,47.66,0,0,0-.285,9.085c-.744-3.14-1.4-6.515-.634-8.469a22.977,22.977,0,0,1,1.476-3.521A29.576,29.576,0,0,0,389.169,170.77Z" opacity="0.25"/>
        </g>
      </g>
      <g id="Group_10" data-name="Group 10">
        <g id="Group_9" data-name="Group 9">
          <path id="Path_66" data-name="Path 66" d="M297.185,202.12l-35.373-6.078-.055.317-78.114,87.949-1.614,21.984,11.2,1.927,19.392,3.333,26.03,4.473,2.474.423-1.862,10.845-.865,5.016-2.845,16.573,23.023,3.959,12.349,2.119,5.572-32.434,15.539,2.666,4.69-27.295-15.54-2.666Zm-44.158,45.068-7.214,41.965-8.629-1.485-18.872-3.241,10.45-12.473,2.39-2.855,19.925-23.782,2.819-3.191Z" fill="#282562"/>
          <path id="Path_67" data-name="Path 67" d="M238.655,316.025l-26.03-4.473c3.066-10.128,6.891-24.086,5.687-27.125l18.872,3.241a18.919,18.919,0,0,1,2.423,8.588C240.067,302.987,239.064,309.86,238.655,316.025Z" opacity="0.25"/>
          <path id="Path_68" data-name="Path 68" d="M219.438,284.622s2.838-3.938,9.229-2.707,6.882,9.1,4.1,17.78-3.441,39-2.13,48.833.492,14.42-2.622,14.748-4.588-11.8-2.785-20.319,1.638-16.387-1.311-15.076-.492,4.588-1.967,7.538-5.9,1.147-5.735-4.425S225.286,289.213,219.438,284.622Z" fill="#98c4f9"/>
          <path id="Path_69" data-name="Path 69" d="M281.19,295.231,296.73,297.9l-4.689,27.295L276.5,322.526l-5.572,32.435-12.349-2.119,21.7-135.43,16.9-15.291Z" opacity="0.25"/>
        </g>
        <line id="Line_3" data-name="Line 3" y2="211.087" transform="translate(270.617)" fill="none" stroke="#092533" stroke-miterlimit="10" stroke-width="0.919"/>
      </g>
      <g id="Group_11" data-name="Group 11">
        <path id="Path_70" data-name="Path 70" d="M336.492,162.61a6.391,6.391,0,1,1-6.391-6.391A6.392,6.392,0,0,1,336.492,162.61Z" fill="#f06"/>
        <path id="Path_71" data-name="Path 71" d="M558.851,243.826a6.391,6.391,0,1,1-6.391-6.391A6.391,6.391,0,0,1,558.851,243.826Z" fill="#282562"/>
        <path id="Path_72" data-name="Path 72" d="M224.7,197.165a6.391,6.391,0,1,1-6.391-6.391A6.391,6.391,0,0,1,224.7,197.165Z" fill="#98c4f9"/>
        <path id="Path_73" data-name="Path 73" d="M330.1,392.608a6.391,6.391,0,1,1-6.391-6.39A6.391,6.391,0,0,1,330.1,392.608Z" fill="#f06"/>
        <circle id="Ellipse_1" data-name="Ellipse 1" cx="2.465" cy="2.465" r="2.465" transform="translate(513.462 179.383)" fill="#32b259"/>
        <circle id="Ellipse_2" data-name="Ellipse 2" cx="2.465" cy="2.465" r="2.465" transform="translate(325.171 217.766)" fill="#98c4f9"/>
        <path id="Path_74" data-name="Path 74" d="M256.361,186.855a2.465,2.465,0,1,1-2.465-2.465A2.465,2.465,0,0,1,256.361,186.855Z" fill="#6c5be8"/>
      </g>
      <g id="Group_12" data-name="Group 12">
        <path id="Path_75" data-name="Path 75" d="M587.373,51.764s-9.851-9.832-28.522-5.9-31.795,33.429-45.389,39.983-40.4,25.91-42.4,42.451c26.183-21.8,36.015-12.3,53.057-14.921s18.353-22.614,42.933-21.958,50.8,31.2,75.379,14.123,53.421-37.392,30.152-54.107S602.121,60.285,587.373,51.764Z" fill="url(#linear-gradient-15)"/>
        <path id="Path_76" data-name="Path 76" d="M188.524,118.217S185.96,131.9,199.737,145.1s45.536,7.4,58.615,14.936,44.178,18.749,58.967,11.074c-32.771-9.326-30.467-22.806-42.242-35.4s-29.025-2.4-42.345-23.073-2.884-59.543-30.845-70.214-61-23.03-61.686,5.612S187.244,101.232,188.524,118.217Z" fill="url(#linear-gradient-16)"/>
        <path id="Path_77" data-name="Path 77" d="M664.391,196.64s-39.984,43.869-48.505,95.3S566.379,340.1,552.46,364.351s-47.092,26.219-62.3,36.051-49.843-7.21-55.793,0,31.071,18.353,79.091,19.009,57.2-36.707,99.8-41.95,85.211-23.6,100.287-93.077S703.063,177.721,664.391,196.64Z" fill="url(#linear-gradient-17)"/>
        <path id="Path_78" data-name="Path 78" d="M87.33,214.3s39.983,43.869,48.505,95.3,49.506,48.157,63.426,72.409,47.091,26.219,62.295,36.051,49.844-7.21,55.793,0-31.07,18.353-79.09,19.009-57.2-36.707-99.8-41.95-85.211-23.6-100.286-93.077S48.657,195.386,87.33,214.3Z" fill="url(#linear-gradient-16)"/>
      </g>
    </g>
  </g>
</svg>
